Motion_pu05
version=1
nRows=12
nColumns=43
inDegrees=yes
endheader
time	pelvis_tilt	pelvis_list	pelvis_rotation	pelvis_tx	pelvis_ty	pelvis_tz	hip_flexion_r	hip_adduction_r	hip_rotation_r	knee_angle_r	ankle_angle_r	subtalar_angle_r	mtp_angle_r	hip_flexion_l	hip_adduction_l	hip_rotation_l	knee_angle_l	ankle_angle_l	subtalar_angle_l	mtp_angle_l	lumbar_extension	lumbar_bending	lumbar_rotation	neck_flexion	neck_lateral_bending	neck_rotation	arm_flex_r	arm_add_r	arm_rot_r	elbow_flex_r	pro_sup_r	wrist_flex_r	wrist_dev_r	hand_finger_flex_r	arm_flex_l	arm_add_l	arm_rot_l	elbow_flex_l	pro_sup_l	wrist_flex_l	wrist_dev_l	hand_finger_flex_l
      0.87000000	      0.86582636	     -0.42702676	    -88.33741653	      0.00146794	      0.96541420	      1.30422694	     16.36629540	     -8.88323915	     -7.28785967	    -75.50343340	     26.49115011	     -8.79014612	     -2.81908771	      9.24320354	     -3.52647978	    -13.72878953	    -67.18677112	     30.52830160	     -1.89480854	     -6.50519381	     31.50144843	     -1.41809371	     -8.58418421	    -15.51776514	     -2.94947973	      9.56306438	   -252.29238483	    -17.08176509	   -356.59622217	     67.62995102	    145.93400879	     23.74509637	      4.00805854	     82.18375602	    116.81845486	    -34.01288145	     18.01514290	     73.52814928	    133.25617742	     36.32329532	     33.91423518	     90.00021046
      0.87250000	      0.91267354	     -0.62379350	    -88.34857527	      0.00119402	      0.96717063	      1.30237915	     16.46657834	     -8.89578804	     -7.28253445	    -75.73291302	     26.49357255	     -8.79634010	     -2.81159600	      9.35476014	     -3.57640404	    -13.77933789	    -67.48920428	     30.54197038	     -1.90944029	     -6.51498010	     31.33541895	     -1.49724778	     -8.59159827	    -15.58112552	     -3.02650104	      9.52803404	   -252.85773500	    -17.12697154	   -356.66782186	     68.06462674	    145.94122937	     23.70785328	      3.97912404	     82.16399039	    116.31118298	    -34.09397712	     17.83288436	     73.90497270	    133.39239489	     36.27986245	     33.85040978	     90.00021046
      0.87500000	      0.95222388	     -0.74116007	    -88.33261226	      0.00135154	      0.96905462	      1.30065630	     16.62846561	     -8.92936279	     -7.24158804	    -75.89166743	     26.37716257	     -8.76430605	     -2.78725714	      9.50987204	     -3.58368065	    -13.81775416	    -67.66450741	     30.44555694	     -1.86552922	     -6.59951753	     31.35135098	     -1.49717994	     -8.53312170	    -15.89175649	     -3.16726721	      9.35203646	   -253.40047538	    -17.11829989	   -356.68610180	     68.38085608	    146.35580339	     23.59060219	      3.91976410	     82.00839821	    115.21559059	    -34.04014584	     16.92275267	     74.53219893	    134.29102048	     35.95689353	     33.58370003	     90.00021046
      0.87750000	      1.00140232	     -0.92631062	    -88.33104320	      0.00105806	      0.97088757	      1.29882710	     16.73243677	     -8.92126956	     -7.21010701	    -76.07591167	     26.39738137	     -8.77222764	     -2.77721811	      9.60700524	     -3.63166449	    -13.86831140	    -67.89210342	     30.49147680	     -1.87554207	     -6.60731744	     31.20778851	     -1.59000724	     -8.57394185	    -15.88593430	     -3.14959307	      9.31783675	   -254.01509006	    -17.08318850	   -356.93346214	     68.79031786	    146.32553182	     23.56501189	      3.89691473	     81.99887328	    114.70504685	    -34.20908118	     16.84431775	     74.92753399	    134.36548321	     35.93252700	     33.51388617	     90.00021046
      0.88000000	      1.06399713	     -1.09237664	    -88.32776149	      0.00087945	      0.97277367	      1.29697844	     16.84414108	     -8.94351417	     -7.16660703	    -76.26506071	     26.38921135	     -8.76907874	     -2.76719685	      9.71637250	     -3.65016961	    -13.92112397	    -68.07843933	     30.50958164	     -1.85528703	     -6.62413779	     31.10525827	     -1.67178647	     -8.60729246	    -15.97694402	     -3.13149354	      9.29475604	   -254.63387175	    -16.98524408	   -357.16914455	     69.14678473	    146.36500008	     23.51548191	      3.87844004	     81.97508637	    114.04181913	    -34.33340582	     16.54803440	     75.46472116	    134.49741360	     35.87478497	     33.46611614	     90.00021046
      0.88250000	      1.12584395	     -1.26410099	    -88.31927676	      0.00080275	      0.97464822	      1.29510358	     16.97858076	     -8.96906101	     -7.13028673	    -76.48157147	     26.37359985	     -8.76090833	     -2.75783535	      9.82730634	     -3.66784155	    -13.96960425	    -68.28875812	     30.52345640	     -1.83598471	     -6.64101504	     30.98609833	     -1.73806211	     -8.62544790	    -16.08156736	     -3.16414206	      9.28942473	   -255.21591450	    -16.92329216	   -357.37710595	     69.51784828	    146.42575679	     23.45366592	      3.85844174	     81.95075621	    113.35520622	    -34.47194886	     16.21624088	     75.95942744	    134.64796658	     35.81314295	     33.45063345	     90.00021046
      0.88500000	      1.15939777	     -1.34637758	    -88.31730766	      0.00106016	      0.97650369	      1.29328137	     17.19458256	     -9.00716917	     -7.07199440	    -76.68468469	     26.22618401	     -8.67618223	     -2.71989326	     10.02502471	     -3.66542583	    -14.00414542	    -68.44383091	     30.47027200	     -1.77882774	     -6.75056693	     31.02881121	     -1.68418812	     -8.58746255	    -16.37787441	     -3.43316698	      9.26470317	   -255.71499837	    -16.81406157	   -357.37571926	     69.77364353	    147.04195587	     23.30411293	      3.74012236	     81.78796052	    112.24428306	    -34.46844852	     15.30543633	     76.65325975	    135.63050380	     35.43239060	     33.36478581	     90.00021046
      0.88750000	      1.20243510	     -1.53028625	    -88.32547515	      0.00074327	      0.97840890	      1.29138228	     17.30098513	     -8.98839606	     -7.03347804	    -76.88950507	     26.24991303	     -8.68175668	     -2.70607316	     10.13141064	     -3.71027385	    -14.03239335	    -68.65135205	     30.51797488	     -1.80138798	     -6.76462970	     30.87943407	     -1.76639927	     -8.63538626	    -16.37608799	     -3.40729181	      9.23443484	   -256.35734649	    -16.72970015	   -357.68336224	     70.19518984	    147.03621547	     23.27807287	      3.70441847	     81.77622357	    111.72811821	    -34.62730918	     15.21324182	     77.10034331	    135.73563866	     35.39458781	     33.31439998	     90.00021046
      0.89000000	      1.26134511	     -1.66583482	    -88.30126184	      0.00075697	      0.98042667	      1.28957785	     17.43239289	     -9.00579982	     -6.96929708	    -77.02920128	     26.20604088	     -8.65306965	     -2.68343425	     10.24470528	     -3.69782801	    -14.05586625	    -68.74675564	     30.50667724	     -1.80771957	     -6.81600117	     30.83849008	     -1.81611482	     -8.66783734	    -16.52950223	     -3.38881875	      9.23628081	   -256.95930468	    -16.59820370	   -357.92225447	     70.49131827	    147.25459778	     23.22121431	      3.62544413	     81.71003966	    110.84480614	    -34.75630319	     14.69440152	     77.75885432	    136.15055067	     35.25593062	     33.28252518	     90.00021046
      0.89250000	      1.29773033	     -1.87555652	    -88.31225657	      0.00049466	      0.98229007	      1.28759273	     17.56263456	     -9.00410731	     -6.96018180	    -77.32174147	     26.21260023	     -8.65245976	     -2.67069697	     10.35386785	     -3.74489491	    -14.07082676	    -69.02138132	     30.53595460	     -1.83778561	     -6.82992041	     30.63695671	     -1.87615099	     -8.68643279	    -16.59568629	     -3.46668980	      9.24712891	   -257.53135747	    -16.59410093	   -358.06679099	     70.93804550	    147.28275702	     23.18123795	      3.57560897	     81.69262725	    110.33970078	    -34.84480180	     14.51630204	     78.16878628	    136.29462959	     35.21351608	     33.26599218	     90.00021046
      0.89500000	      1.34077521	     -2.00355421	    -88.28591292	      0.00053831	      0.98439224	      1.28580196	     17.67999484	     -9.00609452	     -6.89579477	    -77.41756637	     26.13283382	     -8.60020457	     -2.64840291	     10.47027886	     -3.73694660	    -14.07571626	    -69.08406834	     30.49715806	     -1.87041212	     -6.88398496	     30.62073961	     -1.90842202	     -8.70217002	    -16.78720536	     -3.45581908	      9.24746106	   -258.14627751	    -16.49375715	   -358.26419842	     71.23380124	    147.57392233	     23.09027581	      3.48062571	     81.60988693	    109.33602554	    -34.87110713	     13.81853706	     78.87910750	    136.83250625	     35.05200675	     33.27346559	     90.00021046
      0.89750000	      1.37235315	     -2.22035765	    -88.29832838	      0.00024365	      0.98627698	      1.28375132	     17.81052409	     -8.99793985	     -6.89032106	    -77.70993920	     26.13931447	     -8.59923770	     -2.63524530	     10.57913763	     -3.79039443	    -14.08186301	    -69.36765295	     30.52471674	     -1.90843895	     -6.89622536	     30.39618182	     -1.96638874	     -8.70862185	    -16.85798671	     -3.53457350	      9.25208212	   -258.70586658	    -16.53812277	   -358.37464887	     71.71045127	    147.60079068	     23.04723465	      3.42350183	     81.59095506	    108.84624273	    -34.95553417	     13.64168780	     79.25907213	    136.99187234	     35.00748606	     33.25370453	     90.00021046
